PathFileType	4	(X/Y/Z)	/Users/itak/Documents/Research/Walk-IL/dataset/trc/00021_00004.trc
DataRate	CameraRate	NumFrames	NumMarkers	Units	OrigDataRate	OrigDataStartFrame	OrigNumFrames
100.000000	100.000000	4	53	mm	100.000000	686	785
Frame#	Time	RPSI			LPSI			L3			STRN			T10			C7			CLAV			RBAK			LBAK			LSHO			LUPA			LAEL			LAOL			LWTS			LWPS			LFRA			LIFD			LHPS			LHTS			RSHO			RUPA			RAEL			RAOL			RWTS			RWPS			RFRA			RIFD			RHTS			RHPS			RBHD			LFHD			RFHD			LBHD			LHIP			RHIP			RASI			LASI			LKNE			LTHI			LANK			LTIP			LTOE			LMT1			LMT5			LHEE			RKNE			RTHI			RANK			RTIP			RTOE			RMT1			RMT5			RHEE			
		X1	Y1	Z1	X2	Y2	Z2	X3	Y3	Z3	X4	Y4	Z4	X5	Y5	Z5	X6	Y6	Z6	X7	Y7	Z7	X8	Y8	Z8	X9	Y9	Z9	X10	Y10	Z10	X11	Y11	Z11	X12	Y12	Z12	X13	Y13	Z13	X14	Y14	Z14	X15	Y15	Z15	X16	Y16	Z16	X17	Y17	Z17	X18	Y18	Z18	X19	Y19	Z19	X20	Y20	Z20	X21	Y21	Z21	X22	Y22	Z22	X23	Y23	Z23	X24	Y24	Z24	X25	Y25	Z25	X26	Y26	Z26	X27	Y27	Z27	X28	Y28	Z28	X29	Y29	Z29	X30	Y30	Z30	X31	Y31	Z31	X32	Y32	Z32	X33	Y33	Z33	X34	Y34	Z34	X35	Y35	Z35	X36	Y36	Z36	X37	Y37	Z37	X38	Y38	Z38	X39	Y39	Z39	X40	Y40	Z40	X41	Y41	Z41	X42	Y42	Z42	X43	Y43	Z43	X44	Y44	Z44	X45	Y45	Z45	X46	Y46	Z46	X47	Y47	Z47	X48	Y48	Z48	X49	Y49	Z49	X50	Y50	Z50	X51	Y51	Z51	X52	Y52	Z52	X53	Y53	Z53	

687	6.86	-69.82121276855469	1082.34814453125	1166.13134765625	-77.07328796386719	1078.136474609375	1002.182250976562	-79.55247497558594	1139.123901367188	1078.122924804688	145.1347045898438	1326.8037109375	1084.722045898438	-105.7300796508789	1281.4833984375	1081.773315429688	-53.42422485351562	1548.402099609375	1081.62939453125	103.0885391235352	1452.707763671875	1085.8662109375	-108.5077362060547	1409.9208984375	1157.343505859375	-71.11695861816406	1512.3662109375	983.2750244140625	32.02657318115234	1519.504028320312	912.2023315429688	-3.395620822906494	1401.34326171875	828.8108520507812	-14.81860065460205	1187.263793945312	791.6580810546875	-68.70410919189453	1173.032836914062	881.1494140625	70.76829528808594	930.9776000976562	833.885986328125	-7.152477264404297	918.182861328125	792.6695556640625	-4.612338542938232	1071.125244140625	779.3914794921875	92.84368133544922	742.1803588867188	846.9552001953125	23.65444946289062	827.6804809570312	790.8085327148438	89.48394775390625	834.7823486328125	818.3479614257812	20.05238342285156	1527.588989257812	1253.288940429688	5.097860813140869	1457.7841796875	1325.308227539062	-27.4755687713623	1187.15185546875	1347.100708007812	-28.88290214538574	1161.237060546875	1250.434936523438	123.3633193969727	938.0490112304688	1312.731079101562	59.6983528137207	915.010498046875	1374.530639648438	-10.01103591918945	1110.62939453125	1361.587036132812	171.3713531494141	754.510009765625	1302.726928710938	169.2404479980469	833.2282104492188	1325.341186523438	114.0378952026367	821.6050415039062	1373.703857421875	-5.649826049804688	1718.0537109375	1161.497192382812	175.4219512939453	1747.698364257812	1057.419311523438	166.69091796875	1749.005859375	1155.890502929688	0.5556343197822571	1719.20751953125	1017.148193359375	16.13047409057617	975.6336059570312	882.9037475585938	43.40639114379883	961.4151000976562	1258.55029296875	145.0389709472656	995.8849487304688	1181.627197265625	132.0515594482422	1020.611511230469	948.0438842773438	115.0917739868164	535.1470336914062	920.2837524414062	72.01622772216797	668.2509765625	886.8917846679688	-0.1492141038179398	46.80916595458984	920.8106079101562	26.14308738708496	297.3528442382812	904.6827392578125	217.5896453857422	46.14113998413086	981.492919921875	159.341064453125	53.12960052490234	999.3657836914062	123.9600982666016	45.40480804443359	900.3446655273438	-68.3876953125	56.4659538269043	973.746337890625	56.02775192260742	527.0647583007812	1203.070434570312	66.13677978515625	796.2406616210938	1251.866088867188	-32.44205093383789	42.98337173461914	1154.0498046875	35.58072662353516	404.226806640625	1197.69580078125	203.1532135009766	44.31221771240234	1136.570922851562	143.6075744628906	52.52949905395508	1102.031372070312	114.0287628173828	41.50749588012695	1194.316772460938	-82.46936798095703	46.51642227172852	1103.263671875	
688	6.87	-67.45191192626953	1082.1025390625	1166.588623046875	-74.64845275878906	1077.733154296875	1002.631042480469	-77.25756072998047	1138.697875976562	1078.4560546875	146.9958648681641	1326.761108398438	1085.14453125	-103.7587661743164	1280.98974609375	1081.974731445312	-51.98497772216797	1548.024780273438	1081.788940429688	104.726448059082	1452.578491210938	1086.220581054688	-106.807991027832	1409.435302734375	1157.475219726562	-69.49114990234375	1511.901489257812	983.3796997070312	33.7557487487793	1519.208862304688	912.4407348632812	-1.35787296295166	1400.93115234375	829.0733032226562	-12.34058666229248	1186.8046875	792.0611572265625	-66.3526611328125	1172.51171875	881.4788208007812	73.83837127685547	930.7991333007812	834.7304077148438	-3.952426671981812	917.7504272460938	793.354736328125	-1.815759778022766	1070.677490234375	779.9290771484375	96.39925384521484	742.0689697265625	848.0810546875	27.07307434082031	827.3108520507812	791.6778564453125	92.85995483398438	834.6405639648438	819.3291015625	21.3484935760498	1527.357666015625	1253.532348632812	6.351229667663574	1457.536865234375	1325.542114257812	-26.07974433898926	1186.901245117188	1347.311889648438	-27.23979568481445	1160.978881835938	1250.667236328125	124.2552947998047	937.4273071289062	1313.488647460938	60.39645385742188	914.613037109375	1375.151733398438	-8.688833236694336	1110.452758789062	1361.88916015625	171.7963714599609	753.7578735351562	1303.724853515625	169.8820343017578	832.524658203125	1326.287353515625	114.5217971801758	821.10302734375	1374.558959960938	-4.652797698974609	1717.669921875	1161.759887695312	176.3036499023438	1747.917236328125	1057.694213867188	167.6516265869141	1749.14599609375	1156.146728515625	1.567248463630676	1718.875732421875	1017.439453125	18.4727897644043	975.1343994140625	883.430908203125	45.96838760375977	961.335205078125	1259.091674804688	147.5488128662109	995.8193359375	1182.10888671875	134.4808197021484	1020.325500488281	948.4707641601562	115.7985534667969	534.6160888671875	921.0159912109375	73.10447692871094	667.753662109375	887.665283203125	1.231929779052734	46.59994506835938	921.560302734375	27.27917671203613	296.8724060058594	905.5118408203125	219.5706939697266	44.26528167724609	981.2381591796875	161.3327484130859	51.82125473022461	999.3763427734375	125.2174453735352	44.77099990844727	900.5317993164062	-66.74109649658203	56.27262878417969	974.7777709960938	57.10243988037109	526.8521118164062	1203.383056640625	68.09120178222656	796.0029907226562	1252.304565429688	-32.39508819580078	43.00015258789062	1154.064575195312	36.20529937744141	404.1244812011719	1197.924560546875	203.1615447998047	44.29049682617188	1136.555419921875	143.6463317871094	52.50454711914062	1102.044555664062	114.0427398681641	41.47107696533203	1194.339477539062	-82.45803833007812	46.6129035949707	1103.2744140625	
689	6.88	-65.10028839111328	1081.8310546875	1167.016845703125	-72.25654602050781	1077.310180664062	1003.037658691406	-74.99506378173828	1138.260620117188	1078.746948242188	148.8040008544922	1326.699951171875	1085.499145507812	-101.831169128418	1280.479248046875	1082.105590820312	-50.59245300292969	1547.637084960938	1081.86572265625	106.3136978149414	1452.4248046875	1086.506958007812	-105.161979675293	1408.93115234375	1157.526489257812	-67.901611328125	1511.415405273438	983.3987426757812	35.43883514404297	1518.8916015625	912.596923828125	0.6772533655166626	1400.486083984375	829.2586669921875	-9.836087226867676	1186.30224609375	792.4110717773438	-63.99387741088867	1171.958618164062	881.7422485351562	76.89521789550781	930.5737915039062	835.5592041015625	-0.7553122639656067	917.2780151367188	794.0128784179688	1.005167841911316	1070.184448242188	780.4276733398438	99.89814758300781	741.9027099609375	849.2158203125	30.46641159057617	826.8880004882812	792.5364990234375	96.20793914794922	834.440185546875	820.3123168945312	22.56914710998535	1527.103271484375	1253.700561523438	7.541053295135498	1457.27001953125	1325.69775390625	-24.77060508728027	1186.636352539062	1347.45947265625	-25.67939567565918	1160.6943359375	1250.838256835938	125.0572280883789	936.77392578125	1314.239013671875	60.98814010620117	914.214599609375	1375.76025390625	-7.472569942474365	1110.2578125	1362.133178710938	172.0837860107422	752.9550170898438	1304.78125	170.4257965087891	831.8021240234375	1327.262329101562	114.8613662719727	820.5808715820312	1375.447387695312	-3.699884653091431	1717.265625	1161.97265625	177.1454925537109	1748.116821289062	1057.913696289062	168.5664520263672	1749.258666992188	1156.353393554688	2.537565231323242	1718.54443359375	1017.672668457031	20.83012580871582	974.6220703125	883.9210815429688	48.52216339111328	961.2537841796875	1259.599609375	150.0285797119141	995.7564086914062	1182.537353515625	136.8875732421875	1020.025451660156	948.8442993164062	116.4950103759766	534.0397338867188	921.7607421875	74.25154876708984	667.2504272460938	888.4260864257812	2.221380233764648	46.4020881652832	921.9782104492188	28.26152801513672	296.4127197265625	906.1036376953125	221.0452880859375	42.58710479736328	981.0603637695312	162.7816009521484	50.6560173034668	999.359375	126.1271057128906	44.21699905395508	900.6365356445312	-65.61909484863281	56.07618713378906	975.3522338867188	58.13665771484375	526.6447143554688	1203.673950195312	70.05577850341797	795.7645263671875	1252.714477539062	-32.34071731567383	43.01406097412109	1154.08642578125	36.78326034545898	404.0275268554688	1198.131713867188	203.1665649414062	44.27501678466797	1136.537475585938	143.6784515380859	52.47465133666992	1102.055908203125	114.0521469116211	41.43952178955078	1194.35302734375	-82.44142150878906	46.71032333374023	1103.298950195312	
690	6.890000000000001	-62.77241897583008	1081.541015625	1167.40966796875	-69.89806365966797	1076.874633789062	1003.399719238281	-72.765380859375	1137.816040039062	1078.99658203125	150.5596160888672	1326.629150390625	1085.784545898438	-99.95192718505859	1279.957275390625	1082.171142578125	-49.24894714355469	1547.241577148438	1081.859252929688	107.8485565185547	1452.254028320312	1086.72509765625	-103.5706329345703	1408.41650390625	1157.503295898438	-66.34989166259766	1510.915893554688	983.3401489257812	37.07015228271484	1518.556030273438	912.6714477539062	2.700065612792969	1400.013549804688	829.3687133789062	-7.313852787017822	1185.76171875	792.7083129882812	-61.6323127746582	1171.378295898438	881.9419555664062	79.94447326660156	930.3079833984375	836.3681640625	2.432665348052979	916.7725830078125	794.64208984375	3.840834856033325	1069.65234375	780.8869018554688	103.3390197753906	741.6891479492188	850.3491821289062	33.83554458618164	826.4213256835938	793.3807373046875	99.52239990234375	834.1871337890625	821.2947387695312	23.71628761291504	1526.832885742188	1253.794189453125	8.670991897583008	1456.994995117188	1325.776611328125	-23.53926658630371	1186.367309570312	1347.547973632812	-24.19668960571289	1160.392700195312	1250.950561523438	125.7720108032227	936.0993041992188	1314.980834960938	61.48072814941406	913.8253784179688	1376.354736328125	-6.349950790405273	1110.050537109375	1362.327880859375	172.2344970703125	752.1116333007812	1305.894409179688	170.8623809814453	831.0642700195312	1328.258911132812	115.0489730834961	820.0432739257812	1376.3623046875	-2.783814907073975	1716.849731445312	1162.138549804688	177.9527130126953	1748.299438476562	1058.078002929688	169.4337768554688	1749.349243164062	1156.51318359375	3.46368145942688	1718.222900390625	1017.847045898438	23.21072387695312	974.109619140625	884.376220703125	51.05808639526367	961.1741333007812	1260.070922851562	152.4799041748047	995.7000732421875	1182.91455078125	139.2760925292969	1019.721923828125	949.1708984375	117.1676254272461	533.42822265625	922.5025024414062	75.47200775146484	666.7526245117188	889.1585693359375	2.851486444473267	46.19084167480469	922.087158203125	29.07981491088867	295.9798889160156	906.466796875	222.0317077636719	41.20306015014648	980.9601440429688	163.7234191894531	49.6862907409668	999.3281860351562	126.727912902832	43.72771835327148	900.6740112304688	-64.97412109375	55.86730575561523	975.5042114257812	59.1255989074707	526.43994140625	1203.943115234375	72.04540252685547	795.5301513671875	1253.089233398438	-32.28401565551758	43.02895736694336	1154.112670898438	37.33238983154297	403.9351196289062	1198.314819335938	203.169921875	44.26198577880859	1136.518676757812	143.7053833007812	52.4402961730957	1102.064819335938	114.0582427978516	41.41360855102539	1194.361206054688	-82.41885375976562	46.80805587768555	1103.333862304688	
